<?xml version="1.0" encoding="utf-8"?>
<!-- Generator: Adobe Illustrator 25.3.1, SVG Export Plug-In . SVG Version: 6.00 Build 0)  -->
<svg version="1.1" id="Layer_1" xmlns="http://www.w3.org/2000/svg" xmlns:xlink="http://www.w3.org/1999/xlink" x="0px" y="0px"
	 viewBox="0 0 36 36" style="enable-background:new 0 0 36 36;" xml:space="preserve">
<style type="text/css">
	.st0{fill:none;}
	.st1{fill:#DD2E44;}
	.st2{fill:#EA596E;}
	.st3{fill:#A0041E;}
	.st4{fill:#AA8DD8;}
	.st5{fill:#77B255;}
	.st6{fill:#5C913B;}
	.st7{fill:#9266CC;}
	.st8{fill:#FFCC4D;}
</style>
<rect class="st0" width="36" height="36"/>
<g>
	<path class="st1" d="M11.6,7.5c-0.1,0.1-0.2,0.2-0.3,0.4l0,0L0.1,33.1l0,0c-0.2,0.4,0.1,1.2,0.9,1.9c0.7,0.7,1.5,1.1,1.9,0.9l0,0
		l25.3-11.2l0,0c0.1-0.1,0.3-0.2,0.4-0.3c1.6-1.6-1-6.6-5.7-11.3C18.3,8.5,13.2,5.9,11.6,7.5z"/>
	<path class="st2" d="M13,12L0.4,32.5l-0.3,0.6l0,0c-0.2,0.4,0.1,1.2,0.9,1.9c0.2,0.2,0.5,0.4,0.7,0.6L17,17L13,12z"/>
	<path class="st3" d="M23,13.1c4.7,4.7,7.3,9.7,5.8,11.1c-1.5,1.5-6.5-1.1-11.1-5.8c-4.7-4.7-7.3-9.7-5.8-11.1
		C13.4,5.8,18.3,8.4,23,13.1z"/>
	<path class="st4" d="M18.6,13.6c-0.2,0.2-0.5,0.2-0.7,0.2c-0.9-0.1-1.6-0.4-2.1-0.9c-0.5-0.5-0.8-1.2-0.7-1.9
		c0.1-1.2,1.3-2.3,3.4-2.1c0.8,0.1,1.1-0.2,1.2-0.3c0-0.1-0.3-0.4-1.1-0.5c-0.9-0.1-1.6-0.4-2.1-0.9c-0.5-0.5-0.8-1.2-0.7-1.9
		c0.1-1.2,1.3-2.3,3.4-2.1c0.6,0.1,0.9-0.1,1-0.1c0.1-0.1,0.1-0.1,0.1-0.2c0-0.1-0.3-0.4-1.1-0.5c-0.5-0.1-0.9-0.6-0.9-1.1
		c0.1-0.5,0.5-0.9,1.1-0.9c2,0.2,3,1.5,2.8,2.7c-0.1,1.2-1.3,2.3-3.4,2.1c-0.6-0.1-0.9,0.1-1,0.1c-0.1,0.1-0.1,0.1-0.1,0.2
		c0,0.1,0.3,0.4,1.1,0.5c2,0.2,3,1.5,2.8,2.7c-0.1,1.2-1.3,2.3-3.4,2.1c-0.6-0.1-0.9,0.1-1,0.1C17,11.2,17,11.3,17,11.3
		c0,0.1,0.3,0.4,1.1,0.5c0.5,0.1,0.9,0.6,0.9,1.1C18.9,13.2,18.8,13.4,18.6,13.6z"/>
	<path class="st5" d="M30.7,22.9c2-0.6,3.3,0.3,3.7,1.5c0.3,1.2-0.4,2.6-2.4,3.2c-0.8,0.2-1,0.6-1,0.7c0,0.1,0.4,0.3,1.2,0.1
		c2-0.6,3.3,0.3,3.7,1.5c0.3,1.2-0.4,2.6-2.4,3.2c-0.8,0.2-1,0.6-1,0.7c0,0.1,0.4,0.3,1.2,0.1c0.5-0.1,1.1,0.2,1.2,0.7
		c0.1,0.5-0.2,1.1-0.7,1.2c-2,0.6-3.3-0.3-3.7-1.5C30.3,33,31,31.6,33,31c0.8-0.2,1-0.6,1-0.7c0-0.1-0.4-0.3-1.2-0.1
		c-2,0.6-3.3-0.3-3.7-1.5c-0.3-1.2,0.4-2.6,2.4-3.2c0.8-0.2,1-0.6,1-0.7c0-0.1-0.4-0.3-1.2-0.1c-0.5,0.1-1.1-0.2-1.2-0.7
		C29.8,23.6,30.1,23,30.7,22.9z"/>
	<path class="st4" d="M23,20.2c-0.3,0-0.6-0.1-0.8-0.4c-0.3-0.4-0.3-1.1,0.2-1.4c0.2-0.2,5.4-4.3,12.8-3.2c0.5,0.1,0.9,0.6,0.8,1.1
		c-0.1,0.5-0.6,0.9-1.1,0.8c-6.5-0.9-11.2,2.8-11.2,2.8C23.4,20.1,23.2,20.2,23,20.2z"/>
	<path class="st5" d="M5.8,16c-0.1,0-0.2,0-0.3,0c-0.5-0.2-0.8-0.7-0.7-1.2C5.9,10.9,7,4.9,5.7,3.3C5.6,3.2,5.3,3,4.9,3
		C3.9,3.1,4,5.1,4,5.1c0,0.6-0.4,1-0.9,1.1c-0.6,0-1-0.4-1.1-0.9C1.9,3.9,2.3,1.2,4.7,1C5.8,1,6.6,1.3,7.3,2.1
		c2.4,3,0,11.5-0.5,13.2C6.6,15.7,6.2,16,5.8,16z"/>
	<path class="st6" d="M25.5,11c0.8,0,1.5-0.7,1.5-1.5C27,8.7,26.3,8,25.5,8S24,8.7,24,9.5C24,10.3,24.7,11,25.5,11z"/>
	<path class="st7" d="M2,20c1.1,0,2-0.9,2-2s-0.9-2-2-2s-2,0.9-2,2S0.9,20,2,20z"/>
	<path class="st6" d="M32.5,21c0.8,0,1.5-0.7,1.5-1.5S33.3,18,32.5,18S31,18.7,31,19.5S31.7,21,32.5,21z"/>
	<path class="st6" d="M23.5,33c0.8,0,1.5-0.7,1.5-1.5S24.3,30,23.5,30S22,30.7,22,31.5S22.7,33,23.5,33z"/>
	<path class="st8" d="M28,6c1.1,0,2-0.9,2-2s-0.9-2-2-2s-2,0.9-2,2S26.9,6,28,6z"/>
	<path class="st8" d="M32.5,10c0.8,0,1.5-0.7,1.5-1.5S33.3,7,32.5,7S31,7.7,31,8.5S31.7,10,32.5,10z"/>
	<path class="st8" d="M29.5,14c0.8,0,1.5-0.7,1.5-1.5S30.3,11,29.5,11S28,11.7,28,12.5S28.7,14,29.5,14z"/>
	<path class="st8" d="M7.5,25C8.3,25,9,24.3,9,23.5S8.3,22,7.5,22S6,22.7,6,23.5S6.7,25,7.5,25z"/>
</g>
</svg>
